<svg xmlns="http://www.w3.org/2000/svg" width="2063" height="237" viewBox="0 0 2063 237">
  <path id="Path_6" data-name="Path 6" d="M23.75-129h20v21h1q12.5-24,39.75-24,23.75,0,37.125,17.75T135-64.5q0,32-13.375,49.75T84.5,3Q57.25,3,44.75-21h-1V50h-20Zm53,114.25q17.5,0,27.125-10.625T113.5-53.5v-22q0-17.5-9.625-28.125T76.75-114.25A45.324,45.324,0,0,0,64-112.5a32.465,32.465,0,0,0-10.5,5.125,25.061,25.061,0,0,0-7.125,8.25A23.635,23.635,0,0,0,43.75-87.75v46.5a23.635,23.635,0,0,0,2.625,11.375,25.061,25.061,0,0,0,7.125,8.25A32.465,32.465,0,0,0,64-16.5,45.324,45.324,0,0,0,76.75-14.75Zm92.5-2.5H207v-94.5H169.25V-129H227v32.5h1.25q4-15.25,15.125-23.875T271.75-129h18v20H265.5q-17.25,0-27.875,9.973T227-72.848v55.6h50V0H169.25ZM383-157.5q-8.75,0-12.25-3.625a12.608,12.608,0,0,1-3.5-9.125v-4a12.608,12.608,0,0,1,3.5-9.125Q374.25-187,383-187t12.25,3.625a12.608,12.608,0,0,1,3.5,9.125v4a12.608,12.608,0,0,1-3.5,9.125Q391.75-157.5,383-157.5ZM326.5-17.25H373v-94.5H326.5V-129H393V-17.25h43.5V0h-110ZM512.25,0,466-129h20.25l18.5,54,20,58.25h1l20-58.25,18.5-54H584L537.75,0Zm211.5,0Q712,0,707-6a29.138,29.138,0,0,1-6.25-15H699.5A36.136,36.136,0,0,1,685.875-3.375Q676.5,3,660.75,3,640.5,3,628.5-7.5t-12-28.75q0-18,13.125-27.75T672-73.75h27.5V-86.422q0-14.164-8-21.246t-22.75-7.082q-13,0-21.25,5.125A38.518,38.518,0,0,0,634.25-95.75l-13.5-10a45.489,45.489,0,0,1,6.75-9.791A43.1,43.1,0,0,1,638-124.01a57.436,57.436,0,0,1,14.25-5.834A68.159,68.159,0,0,1,670-132q22.75,0,36.125,11.525T719.5-88.406V-17.25h18V0Zm-59.5-13.75a49.951,49.951,0,0,0,14.125-1.875,41.341,41.341,0,0,0,11.125-5,23.412,23.412,0,0,0,7.375-7.5A17.913,17.913,0,0,0,699.5-37.5V-58.75H672q-18,0-26.25,5a15.984,15.984,0,0,0-8.25,14.5V-34q0,10,7.125,15.125T664.25-13.75ZM829.5,3a60.23,60.23,0,0,1-24.875-4.875A51.709,51.709,0,0,1,786.25-15.5a59.055,59.055,0,0,1-11.375-21.25A93.449,93.449,0,0,1,771-64.5a90.735,90.735,0,0,1,4-27.75,61.913,61.913,0,0,1,11.5-21.375,50.059,50.059,0,0,1,18.25-13.625,60.052,60.052,0,0,1,24.5-4.75q18.75,0,30.5,8.25A48.466,48.466,0,0,1,877-102.25l-16,8.5a30.115,30.115,0,0,0-11.625-15.5q-8.125-5.5-20.125-5.5a40.18,40.18,0,0,0-15.625,2.875A32.179,32.179,0,0,0,802-103.75a34.264,34.264,0,0,0-7.125,12.5A50.323,50.323,0,0,0,792.5-75.5v22a50.323,50.323,0,0,0,2.375,15.75A34.264,34.264,0,0,0,802-25.25a31.955,31.955,0,0,0,11.75,8.125,41.823,41.823,0,0,0,16,2.875q13,0,21.5-6a41.544,41.544,0,0,0,13.5-16.5L879-27A51.215,51.215,0,0,1,861.125-5.5Q849,3,829.5,3Zm187.25-132h20l-64,157.25a54.61,54.61,0,0,1-5,9.625,25.145,25.145,0,0,1-6.5,6.75,27.858,27.858,0,0,1-9,4A49.808,49.808,0,0,1,939.75,50h-19V32.75h30L965.25-2.5l-52-126.5h20.5L955.5-75l19.25,49h1L995-75Zm207,0h20v21h1q12.5-24,39.75-24,23.75,0,37.125,17.75T1335-64.5q0,32-13.375,49.75T1284.5,3q-27.25,0-39.75-24h-1V50h-20Zm53,114.25q17.5,0,27.125-10.625T1313.5-53.5v-22q0-17.5-9.625-28.125T1276.75-114.25A45.324,45.324,0,0,0,1264-112.5a32.465,32.465,0,0,0-10.5,5.125,25.061,25.061,0,0,0-7.125,8.25,23.635,23.635,0,0,0-2.625,11.375v46.5a23.635,23.635,0,0,0,2.625,11.375,25.061,25.061,0,0,0,7.125,8.25A32.464,32.464,0,0,0,1264-16.5,45.324,45.324,0,0,0,1276.75-14.75ZM1425,3a60.287,60.287,0,0,1-24.375-4.75,50.943,50.943,0,0,1-18.5-13.625,60.922,60.922,0,0,1-11.625-21.25,90.42,90.42,0,0,1-4-27.875,90.736,90.736,0,0,1,4-27.75,60.77,60.77,0,0,1,11.625-21.375,50.943,50.943,0,0,1,18.5-13.625A60.287,60.287,0,0,1,1425-132a60.287,60.287,0,0,1,24.375,4.75,50.943,50.943,0,0,1,18.5,13.625A60.77,60.77,0,0,1,1479.5-92.25a90.736,90.736,0,0,1,4,27.75,90.42,90.42,0,0,1-4,27.875,60.922,60.922,0,0,1-11.625,21.25,50.943,50.943,0,0,1-18.5,13.625A60.287,60.287,0,0,1,1425,3Zm0-17.25q16.75,0,27-10t10.25-31v-18.5q0-21-10.25-31t-27-10q-16.75,0-27,10t-10.25,31v18.5q0,21,10.25,31T1425-14.25Zm95-3h45v-150.5h-45V-185h65V-17.25h45V0H1520ZM1733-157.5q-8.75,0-12.25-3.625a12.608,12.608,0,0,1-3.5-9.125v-4a12.608,12.608,0,0,1,3.5-9.125Q1724.25-187,1733-187t12.25,3.625a12.608,12.608,0,0,1,3.5,9.125v4a12.608,12.608,0,0,1-3.5,9.125Q1741.75-157.5,1733-157.5ZM1676.5-17.25H1723v-94.5h-46.5V-129H1743V-17.25h43.5V0h-110ZM1879.5,3a60.229,60.229,0,0,1-24.875-4.875A51.709,51.709,0,0,1,1836.25-15.5a59.055,59.055,0,0,1-11.375-21.25A93.447,93.447,0,0,1,1821-64.5a90.736,90.736,0,0,1,4-27.75,61.912,61.912,0,0,1,11.5-21.375,50.059,50.059,0,0,1,18.25-13.625,60.052,60.052,0,0,1,24.5-4.75q18.75,0,30.5,8.25a48.465,48.465,0,0,1,17.25,21.5l-16,8.5a30.115,30.115,0,0,0-11.625-15.5q-8.125-5.5-20.125-5.5a40.18,40.18,0,0,0-15.625,2.875A32.178,32.178,0,0,0,1852-103.75a34.266,34.266,0,0,0-7.125,12.5A50.321,50.321,0,0,0,1842.5-75.5v22a50.321,50.321,0,0,0,2.375,15.75A34.266,34.266,0,0,0,1852-25.25a31.955,31.955,0,0,0,11.75,8.125,41.823,41.823,0,0,0,16,2.875q13,0,21.5-6a41.545,41.545,0,0,0,13.5-16.5L1929-27a51.215,51.215,0,0,1-17.875,21.5Q1899,3,1879.5,3Zm187.25-132h20l-64,157.25a54.606,54.606,0,0,1-5,9.625,25.146,25.146,0,0,1-6.5,6.75,27.858,27.858,0,0,1-9,4A49.807,49.807,0,0,1,1989.75,50h-19V32.75h30l14.5-35.25-52-126.5h20.5l21.75,54,19.25,49h1L2045-75Z" transform="translate(-23.75 187)" fill="#fff"/>
</svg>
