<svg xmlns="http://www.w3.org/2000/svg" width="709" height="188" viewBox="0 0 709 188">
  <path id="Path_5" data-name="Path 5" d="M24.5-185h20v77h1a51.334,51.334,0,0,1,5-9.125,32,32,0,0,1,7.375-7.625A36.739,36.739,0,0,1,68.25-130a44.321,44.321,0,0,1,14-2q20.25,0,32.5,12.875T127-82.75V0H107V-79.25q0-17.75-7.75-26.375T76.5-114.25a46.358,46.358,0,0,0-11.75,1.5,33.615,33.615,0,0,0-10.25,4.5,23.075,23.075,0,0,0-7.25,7.75,21.557,21.557,0,0,0-2.75,11V0h-20ZM227.25,3a63.413,63.413,0,0,1-25.125-4.75,52.754,52.754,0,0,1-19-13.625A61.862,61.862,0,0,1,171-36.625a84.674,84.674,0,0,1-4.25-27.625,84.374,84.374,0,0,1,4.375-28,64.45,64.45,0,0,1,12.125-21.375,52.106,52.106,0,0,1,18.625-13.625A59.641,59.641,0,0,1,226-132a57.249,57.249,0,0,1,23.625,4.75,53.1,53.1,0,0,1,18.125,13.125,57.93,57.93,0,0,1,11.5,19.875,76.412,76.412,0,0,1,4,25.25v9.5h-95.5v6a44.053,44.053,0,0,0,2.75,15.75,35.861,35.861,0,0,0,7.875,12.5,34.929,34.929,0,0,0,12.5,8.125A44.741,44.741,0,0,0,227.25-14.25q13,0,22.5-6a38.778,38.778,0,0,0,14.5-16.5l14.75,10q-5.75,13-19.125,21.375T227.25,3ZM226-115.5a38.306,38.306,0,0,0-15.25,3,37.253,37.253,0,0,0-12.125,8.25,37.7,37.7,0,0,0-8,12.375A41.38,41.38,0,0,0,187.75-76.25v1.75h74v-2.75a43.84,43.84,0,0,0-2.625-15.5,37.571,37.571,0,0,0-7.25-12.125,30.872,30.872,0,0,0-11.25-7.875A37.789,37.789,0,0,0,226-115.5Zm94,98.25h45v-150.5H320V-185h65V-17.25h45V0H320Zm150,0h45v-150.5H470V-185h65V-17.25h45V0H470ZM675,3a60.287,60.287,0,0,1-24.375-4.75,50.943,50.943,0,0,1-18.5-13.625A60.924,60.924,0,0,1,620.5-36.625a90.418,90.418,0,0,1-4-27.875,90.735,90.735,0,0,1,4-27.75,60.772,60.772,0,0,1,11.625-21.375,50.943,50.943,0,0,1,18.5-13.625A60.287,60.287,0,0,1,675-132a60.287,60.287,0,0,1,24.375,4.75,50.943,50.943,0,0,1,18.5,13.625A60.772,60.772,0,0,1,729.5-92.25a90.735,90.735,0,0,1,4,27.75,90.418,90.418,0,0,1-4,27.875,60.924,60.924,0,0,1-11.625,21.25,50.943,50.943,0,0,1-18.5,13.625A60.287,60.287,0,0,1,675,3Zm0-17.25q16.75,0,27-10t10.25-31v-18.5q0-21-10.25-31t-27-10q-16.75,0-27,10t-10.25,31v18.5q0,21,10.25,31T675-14.25Z" transform="translate(-24.5 185)" fill="#fff"/>
</svg>
