<svg xmlns="http://www.w3.org/2000/svg" width="418" height="54" viewBox="0 0 418 54">
  <path id="Path_4" data-name="Path 4" d="M3.864-41.44h8.285v24.788h.336l3.639-5.5L22-29.245h9.181l-9.8,11.4L32.3.535H22.449L15.844-12.058l-3.695,4.2V.535H3.864ZM46.576,1.215A14.747,14.747,0,0,1,40.783.138a11.565,11.565,0,0,1-4.31-3.12,14.272,14.272,0,0,1-2.715-4.935,20.622,20.622,0,0,1-.952-6.466,20.622,20.622,0,0,1,.952-6.466,13.968,13.968,0,0,1,2.715-4.907,11.708,11.708,0,0,1,4.31-3.091,14.747,14.747,0,0,1,5.794-1.078,14.747,14.747,0,0,1,5.794,1.078,11.708,11.708,0,0,1,4.31,3.091A13.968,13.968,0,0,1,59.4-20.85a20.622,20.622,0,0,1,.952,6.466A20.622,20.622,0,0,1,59.4-7.917a14.272,14.272,0,0,1-2.715,4.935A11.565,11.565,0,0,1,52.37.138,14.747,14.747,0,0,1,46.576,1.215Zm0-6.637a4.8,4.8,0,0,0,3.807-1.532,6.418,6.418,0,0,0,1.344-4.368V-17.39a6.418,6.418,0,0,0-1.344-4.368,4.8,4.8,0,0,0-3.807-1.532,4.8,4.8,0,0,0-3.807,1.532,6.418,6.418,0,0,0-1.344,4.368v6.069A6.418,6.418,0,0,0,42.77-6.953,4.8,4.8,0,0,0,46.576-5.421ZM72.047.535,62.419-29.245h8.173L74.23-17.219,76.973-6.442h.448l2.743-10.777,3.527-12.025h7.837L81.9.535Zm41.817-29.779h7.725L110.281,5.129a10.5,10.5,0,0,1-3.163,5.105,9.127,9.127,0,0,1-5.85,1.645h-5.15V5.356h5.542l1.008-3.29-10.3-31.311H100.6l4.31,13.9,2.127,8.622h.336l2.183-8.622ZM134.017.535q-4.254,0-6.242-2.1a8.5,8.5,0,0,1-1.987-6.069V-41.44h8.285V-5.988h3.695V.535Zm26.366-29.779h7.725L156.8,5.129a10.5,10.5,0,0,1-3.163,5.105,9.127,9.127,0,0,1-5.85,1.645h-5.15V5.356h5.542l1.008-3.29-10.3-31.311h8.229l4.31,13.9,2.127,8.622h.336l2.183-8.622ZM193.243.535A5.173,5.173,0,0,1,189.52-.883a6.552,6.552,0,0,1-1.875-3.8h-.336a6.887,6.887,0,0,1-2.967,4.4,10.1,10.1,0,0,1-5.654,1.5q-4.422,0-6.774-2.375a8.532,8.532,0,0,1-2.351-6.276,7.853,7.853,0,0,1,3.387-6.983q3.387-2.29,9.209-2.29h4.646v-1.872a5.019,5.019,0,0,0-1.12-3.432,4.772,4.772,0,0,0-3.751-1.276,6.442,6.442,0,0,0-3.919,1.078,10.591,10.591,0,0,0-2.407,2.439l-4.926-4.449a12.937,12.937,0,0,1,4.506-4.193,15.177,15.177,0,0,1,7.361-1.512q6.27,0,9.4,2.779t3.135,8.111V-5.988h2.743V.535ZM181.767-4.627a6.722,6.722,0,0,0,3.555-.9,3.161,3.161,0,0,0,1.483-2.927v-3.489h-4.031q-4.87,0-4.87,3.321v.845a2.8,2.8,0,0,0,1.008,2.392A4.663,4.663,0,0,0,181.767-4.627Zm33.868,5.842a15.333,15.333,0,0,1-5.99-1.106,12.364,12.364,0,0,1-4.45-3.12,13.188,13.188,0,0,1-2.743-4.907,21.2,21.2,0,0,1-.924-6.466,21.324,21.324,0,0,1,.9-6.381,13.619,13.619,0,0,1,2.659-4.907,11.793,11.793,0,0,1,4.338-3.148,14.768,14.768,0,0,1,5.878-1.106,14.327,14.327,0,0,1,6.242,1.248,11.806,11.806,0,0,1,4.254,3.347,13.552,13.552,0,0,1,2.407,4.85,21.639,21.639,0,0,1,.756,5.757v2.5H210.093v.45a6.617,6.617,0,0,0,1.567,4.641q1.567,1.716,4.926,1.716a7.66,7.66,0,0,0,4.2-1.041,16.535,16.535,0,0,0,3.023-2.5l4.142,5.233a13.07,13.07,0,0,1-5.122,3.64A18.679,18.679,0,0,1,215.635,1.215Zm-.168-24.958a4.91,4.91,0,0,0-3.947,1.673,6.628,6.628,0,0,0-1.427,4.453v.454h10.3v-.511a7.363,7.363,0,0,0-1.2-4.4A4.276,4.276,0,0,0,215.467-23.743ZM240.546.535l-9.628-29.779h8.173l3.639,12.025,2.743,10.777h.448l2.743-10.777,3.527-12.025h7.837L250.4.535Zm43.216-4.711h-.224a8.809,8.809,0,0,1-8.453,5.391,10.852,10.852,0,0,1-4.87-1.078,10.608,10.608,0,0,1-3.723-3.063,14.113,14.113,0,0,1-2.351-4.821,23.072,23.072,0,0,1-.812-6.353,23.072,23.072,0,0,1,.812-6.353,14.113,14.113,0,0,1,2.351-4.821,10.608,10.608,0,0,1,3.723-3.063,10.852,10.852,0,0,1,4.87-1.078,9.727,9.727,0,0,1,5.178,1.32,8.206,8.206,0,0,1,3.275,4.072h.224V-41.44h4.478V.535h-4.478Zm-7.445,1.364a10.263,10.263,0,0,0,2.883-.4,7.187,7.187,0,0,0,2.379-1.169,5.683,5.683,0,0,0,1.6-1.881,5.346,5.346,0,0,0,.588-2.537V-19.744A4.555,4.555,0,0,0,283.174-22a5.589,5.589,0,0,0-1.6-1.8A8,8,0,0,0,279.2-24.96a9.629,9.629,0,0,0-2.883-.428,7.655,7.655,0,0,0-5.99,2.423,9.134,9.134,0,0,0-2.183,6.357v5.016a9.134,9.134,0,0,0,2.183,6.357A7.655,7.655,0,0,0,276.317-2.812Zm32.3,4.027A12.814,12.814,0,0,1,303.271.138a11.543,11.543,0,0,1-4.087-3.091,14.241,14.241,0,0,1-2.631-4.821,20.184,20.184,0,0,1-.924-6.325,20.255,20.255,0,0,1,.924-6.3,14.2,14.2,0,0,1,2.631-4.85,11.543,11.543,0,0,1,4.087-3.091,12.814,12.814,0,0,1,5.346-1.078,12.141,12.141,0,0,1,5.206,1.074,11.543,11.543,0,0,1,3.919,2.968,13.27,13.27,0,0,1,2.491,4.494,17.944,17.944,0,0,1,.868,5.709v2.148H300.332v1.361a10.132,10.132,0,0,0,.588,3.488A8.3,8.3,0,0,0,302.6-5.364a7.671,7.671,0,0,0,2.687,1.872,9.12,9.12,0,0,0,3.611.681,8.7,8.7,0,0,0,4.786-1.3,8.527,8.527,0,0,0,3.163-3.744l3.191,2.341a11.247,11.247,0,0,1-4.366,4.88A13.032,13.032,0,0,1,308.617,1.215Zm0-26.83a8.436,8.436,0,0,0-3.359.648,7.541,7.541,0,0,0-2.6,1.832,8.614,8.614,0,0,0-1.707,2.79,9.77,9.77,0,0,0-.616,3.524v.394h15.954v-.62a8.977,8.977,0,0,0-2.1-6.229A7.12,7.12,0,0,0,308.617-25.614Zm28.55,26.83a13.367,13.367,0,0,1-6.746-1.56,15.41,15.41,0,0,1-4.674-4.169l3.191-2.609A12.61,12.61,0,0,0,332.688-3.8,9.67,9.67,0,0,0,337.5-2.642a7.063,7.063,0,0,0,4.45-1.248,4.208,4.208,0,0,0,1.6-3.517,4.23,4.23,0,0,0-1.092-2.921A6.619,6.619,0,0,0,338.51-12l-2.3-.34a18.943,18.943,0,0,1-3.695-.879,10.227,10.227,0,0,1-2.939-1.588,6.816,6.816,0,0,1-1.959-2.467,8.139,8.139,0,0,1-.7-3.517,8.553,8.553,0,0,1,.784-3.772,7.58,7.58,0,0,1,2.155-2.694,9.361,9.361,0,0,1,3.275-1.617,14.944,14.944,0,0,1,4.087-.539,12.614,12.614,0,0,1,5.906,1.248,13.276,13.276,0,0,1,4.17,3.46l-2.967,2.723a8.94,8.94,0,0,0-2.8-2.467,8.919,8.919,0,0,0-4.646-1.106,6.355,6.355,0,0,0-4.226,1.22,4.137,4.137,0,0,0-1.427,3.318,3.491,3.491,0,0,0,1.427,3.12,10.572,10.572,0,0,0,4.115,1.418l2.239.34q4.814.737,6.829,2.808a7.436,7.436,0,0,1,2.015,5.417A8.338,8.338,0,0,1,345-1.224Q342.149,1.215,337.167,1.215ZM357.991-35.6a2.716,2.716,0,0,1-2.1-.709,2.637,2.637,0,0,1-.644-1.843v-.737a2.637,2.637,0,0,1,.644-1.843,2.716,2.716,0,0,1,2.1-.709,2.716,2.716,0,0,1,2.1.709,2.637,2.637,0,0,1,.644,1.843v.737a2.637,2.637,0,0,1-.644,1.843A2.716,2.716,0,0,1,357.991-35.6Zm-2.239,6.863h4.478V.535h-4.478ZM394.1,3.8a7.206,7.206,0,0,1-3.5,6.642q-3.5,2.12-10.5,2.12-6.774,0-9.74-1.87A5.944,5.944,0,0,1,367.4,5.365a5.259,5.259,0,0,1,1.232-3.711A7.217,7.217,0,0,1,371.986-.3V-.924a4.211,4.211,0,0,1-2.575-4.066,4.112,4.112,0,0,1,1.4-3.36,9.118,9.118,0,0,1,3.583-1.723V-10.3a9.382,9.382,0,0,1-4-3.584,10.145,10.145,0,0,1-1.427-5.4,10.527,10.527,0,0,1,.784-4.1,9.2,9.2,0,0,1,2.211-3.214,10.063,10.063,0,0,1,3.415-2.077,12.683,12.683,0,0,1,4.45-.74,12.722,12.722,0,0,1,5.486,1.134v-.511a4.864,4.864,0,0,1,.784-2.845,2.915,2.915,0,0,1,2.575-1.125h4.31v4.027h-5.486v1.877a9.522,9.522,0,0,1,2.435,3.271,10.251,10.251,0,0,1,.868,4.295,10.525,10.525,0,0,1-.784,4.1,9.2,9.2,0,0,1-2.211,3.214A10.012,10.012,0,0,1,384.358-9.9a12.918,12.918,0,0,1-4.478.74,14.06,14.06,0,0,1-2.8-.284,9.24,9.24,0,0,0-2.631,1.163,2.407,2.407,0,0,0-1.176,2.127A1.727,1.727,0,0,0,374.505-4.4a9.386,9.386,0,0,0,3.191.454h6.158q5.374,0,7.809,2.063A7.049,7.049,0,0,1,394.1,3.8Zm-4.2.31A3.408,3.408,0,0,0,388.584,1.3Q387.269.251,383.91.251h-9.629a4.145,4.145,0,0,0-2.687,3.971,4.38,4.38,0,0,0,1.427,3.29q1.427,1.361,4.842,1.361h4.142a11.771,11.771,0,0,0,5.822-1.191A3.869,3.869,0,0,0,389.9,4.108Zm-10.02-16.9a6.874,6.874,0,0,0,4.534-1.4,5.275,5.275,0,0,0,1.679-4.3v-1.6a5.275,5.275,0,0,0-1.679-4.3,6.874,6.874,0,0,0-4.534-1.4,6.874,6.874,0,0,0-4.534,1.4,5.275,5.275,0,0,0-1.679,4.3v1.6a5.275,5.275,0,0,0,1.679,4.3A6.874,6.874,0,0,0,379.879-12.8ZM399.3.535V-28.734h4.478v4.711h.224A9.53,9.53,0,0,1,407-27.955a8.381,8.381,0,0,1,5.178-1.46,9,9,0,0,1,7.081,2.921q2.6,2.921,2.6,8.253V.535h-4.478v-18.02q0-7.9-6.55-7.9a9.911,9.911,0,0,0-2.6.341,7.517,7.517,0,0,0-2.267,1.023,5.033,5.033,0,0,0-1.6,1.734,4.988,4.988,0,0,0-.588,2.473V.535Z" transform="translate(-3.864 41.44)" fill="#000"/>
</svg>
